  0
SECTION
  2
HEADER
  9
$ACADVER
  1
AC1003
  9
$INSBASE
 10
0.0
 20
0.0
  9
$EXTMIN
 10
-0.0000000000000151
 20
-0.0001181102362198
  9
$EXTMAX
 10
47.73661417322834
 20
13.01102362204724
  9
$LIMMIN
 10
0.0
 20
0.0
  9
$LIMMAX
 10
0.0
 20
0.0
  9
$ORTHOMODE
 70
     0
  9
$REGENMODE
 70
     1
  9
$FILLMODE
 70
     1
  9
$QTEXTMODE
 70
     0
  9
$DRAGMODE
 70
     2
  9
$LTSCALE
 40
1.0
  9
$OSMODE
 70
    37
  9
$ATTMODE
 70
     1
  9
$TEXTSIZE
 40
0.0
  9
$TRACEWID
 40
0.05
  9
$TEXTSTYLE
  7
STANDARD
  9
$CLAYER
  8
0
  9
$CELTYPE
  6
CONTINUOUS
  9
$CECOLOR
 62
   256
  9
$DIMSCALE
 40
1.0
  9
$DIMASZ
 40
0.18
  9
$DIMEXO
 40
0.0625
  9
$DIMDLI
 40
0.38
  9
$DIMRND
 40
0.0
  9
$DIMDLE
 40
0.0
  9
$DIMEXE
 40
0.18
  9
$DIMTP
 40
0.0
  9
$DIMTM
 40
0.0
  9
$DIMTXT
 40
0.18
  9
$DIMCEN
 40
0.09
  9
$DIMTSZ
 40
0.0
  9
$DIMTOL
 70
     0
  9
$DIMLIM
 70
     0
  9
$DIMTIH
 70
     1
  9
$DIMTOH
 70
     1
  9
$DIMSE1
 70
     0
  9
$DIMSE2
 70
     0
  9
$DIMTAD
 70
     0
  9
$DIMZIN
 70
     0
  9
$DIMBLK
  1

  9
$DIMASO
 70
     1
  9
$DIMSHO
 70
     1
  9
$DIMPOST
  1

  9
$DIMAPOST
  1

  9
$DIMALT
 70
     0
  9
$DIMALTD
 70
     2
  9
$DIMALTF
 40
25.4
  9
$DIMLFAC
 40
1.0
  9
$DIMTOFL
 70
     0
  9
$DIMTVP
 40
0.0
  9
$DIMTIX
 70
     0
  9
$DIMSOXD
 70
     0
  9
$DIMSAH
 70
     0
  9
$DIMBLK1
  1

  9
$DIMBLK2
  1

  9
$LUNITS
 70
     2
  9
$LUPREC
 70
     4
  9
$SKETCHINC
 40
0.1
  9
$FILLETRAD
 40
0.0
  9
$AUNITS
 70
     0
  9
$AUPREC
 70
     0
  9
$MENU
  1
acad
  9
$ELEVATION
 40
0.0
  9
$THICKNESS
 40
0.0
  9
$LIMCHECK
 70
     0
  9
$CHAMFERA
 40
0.0
  9
$CHAMFERB
 40
0.0
  9
$SKPOLY
 70
     0
  9
$TDCREATE
 40
2456805.612150822
  9
$TDUPDATE
 40
2456977.346655764
  9
$TDINDWG
 40
0.0696529861
  9
$TDUSRTIMER
 40
0.0696528356
  9
$USRTIMER
 70
     1
  9
$ANGBASE
 50
0.0
  9
$ANGDIR
 70
     0
  9
$PDMODE
 70
     0
  9
$PDSIZE
 40
0.0
  9
$PLINEWID
 40
0.0
  9
$COORDS
 70
     1
  9
$SURFTAB1
 70
     6
  9
$SURFTAB2
 70
     6
  9
$SURFTYPE
 70
     6
  9
$SURFU
 70
     6
  9
$SURFV
 70
     6
  9
$UCSNAME
  2

  9
$UCSORG
 10
0.0
 20
0.0
 30
0.0
  9
$UCSXDIR
 10
1.0
 20
0.0
 30
0.0
  9
$UCSYDIR
 10
0.0
 20
1.0
 30
0.0
  9
$USERI1
 70
     0
  9
$USERI2
 70
     0
  9
$USERI3
 70
     0
  9
$USERI4
 70
     0
  9
$USERI5
 70
     0
  9
$USERR1
 40
0.0
  9
$USERR2
 40
0.0
  9
$USERR3
 40
0.0
  9
$USERR4
 40
0.0
  9
$USERR5
 40
0.0
  9
$WORLDVIEW
 70
     1
  0
ENDSEC
  0
SECTION
  2
TABLES
  0
TABLE
  2
LTYPE
 70
     1
  0
LTYPE
  2
CONTINUOUS
 70
     0
  3
Solid line
 72
    65
 73
     0
 40
0.0
  0
ENDTAB
  0
TABLE
  2
LAYER
 70
     3
  0
LAYER
  2
0
 70
     0
 62
     7
  6
CONTINUOUS
  0
LAYER
  2
LAYER_1
 70
     0
 62
     7
  6
CONTINUOUS
  0
LAYER
  2
DEFPOINTS
 70
     0
 62
     7
  6
CONTINUOUS
  0
ENDTAB
  0
TABLE
  2
STYLE
 70
     1
  0
STYLE
  2
STANDARD
 70
     0
 40
0.0
 41
1.0
 50
0.0
 71
     0
 42
0.2
  3
txt
  4

  0
ENDTAB
  0
TABLE
  2
VIEW
 70
     0
  0
ENDTAB
  0
ENDSEC
  0
SECTION
  2
BLOCKS
  0
ENDSEC
  0
SECTION
  2
ENTITIES
  0
ARC
  8
0
  6
CONTINUOUS
 10
0.8368110236220331
 20
12.17421259842519
 40
0.8368110236220482
 50
0.0
 51
180.0
  0
ARC
  8
0
  6
CONTINUOUS
 10
10.65720472440944
 20
12.17421259842519
 40
0.8368110236220482
 50
0.0
 51
180.0
  0
ARC
  8
0
  6
CONTINUOUS
 10
12.85972440944881
 20
0.8375196850393678
 40
0.8368110236220482
 50
152.929571044811
 51
270.0
  0
ARC
  8
0
  6
CONTINUOUS
 10
18.65362204724409
 20
12.17421259842519
 40
0.8368110236220482
 50
27.07042895518894
 51
152.9295710448106
  0
ARC
  8
0
  6
CONTINUOUS
 10
23.69114173228346
 20
12.17421259842519
 40
0.8368110236220482
 50
25.63211718527232
 51
205.6321171852726
  0
ARC
  8
0
  6
CONTINUOUS
 10
29.1305905511811
 20
0.8375196850393678
 40
0.8368110236220482
 50
205.6321171852728
 51
334.3678828147272
  0
ARC
  8
0
  6
CONTINUOUS
 10
38.16496062992127
 20
0.8375196850393678
 40
0.8368110236220482
 50
142.3860001682678
 51
322.3860001682679
  0
ARC
  8
0
  6
CONTINUOUS
 10
46.89980314960629
 20
0.8375196850393678
 40
0.8368110236220482
 50
217.6139998317322
 51
37.61399983173215
  0
ARC
  8
0
  6
CONTINUOUS
 10
46.89980314960629
 20
12.17421259842519
 40
0.8368110236220482
 50
322.3860001682679
 51
142.3860001682678
  0
ARC
  8
0
  6
CONTINUOUS
 10
38.16496062992127
 20
12.17421259842519
 40
0.8368110236220482
 50
37.61399983173215
 51
217.6139998317322
  0
LINE
  8
0
  6
CONTINUOUS
 10
37.50208869805159
 20
11.6634744157966
 11
41.47598976394202
 21
6.505866141732277
  0
LINE
  8
0
  6
CONTINUOUS
 10
47.56267508147597
 20
1.348257867667953
 11
43.58877401558553
 21
6.505866141732277
  0
LINE
  8
0
  6
CONTINUOUS
 10
46.2369312177366
 20
12.68495078105376
 11
42.53238188976378
 21
7.876926135037343
  0
LINE
  8
0
  6
CONTINUOUS
 10
43.58877401558553
 20
6.505866141732277
 11
47.56267508147597
 21
11.6634744157966
  0
LINE
  8
0
  6
CONTINUOUS
 10
42.53238188976378
 20
5.134806148427223
 11
46.2369312177366
 21
0.326781502410789
  0
LINE
  8
0
  6
CONTINUOUS
 10
42.53238188976378
 20
7.876926135037343
 11
38.82783256179093
 21
12.68495078105376
  0
LINE
  8
0
  6
CONTINUOUS
 10
41.47598976394202
 20
6.505866141732277
 11
37.50208869805159
 21
1.348257867667953
  0
LINE
  8
0
  6
CONTINUOUS
 10
42.53238188976378
 20
5.134806148427223
 11
38.82783256179093
 21
0.326781502410789
  0
LINE
  8
0
  6
CONTINUOUS
 10
22.93668113187947
 20
11.81221551046256
 11
28.37612995077711
 21
0.4755225970767328
  0
ARC
  8
0
  6
CONTINUOUS
 10
34.57003937007874
 20
12.17421259842519
 40
0.8368110236220482
 50
334.3678828147272
 51
154.3678828147268
  0
LINE
  8
0
  6
CONTINUOUS
 10
35.32449997048273
 20
11.81221551046256
 11
29.8850511515851
 21
0.4755225970767328
  0
LINE
  8
0
  6
CONTINUOUS
 10
24.44560233268746
 20
12.53620968638781
 11
29.1305905511811
 21
2.771934940135743
  0
LINE
  8
0
  6
CONTINUOUS
 10
33.81557876967475
 20
12.53620968638781
 11
29.1305905511811
 21
2.771934940135743
  0
ARC
  8
0
  6
CONTINUOUS
 10
24.44751968503937
 20
0.8375196850393678
 40
0.8368110236220482
 50
207.0704289551889
 51
27.07042895518894
  0
ARC
  8
0
  6
CONTINUOUS
 10
18.65362204724409
 20
0.8375196850393678
 40
0.8368110236220482
 50
270.0
 51
90.0
  0
LINE
  8
0
  6
CONTINUOUS
 10
18.65362204724409
 20
0.0007086614173204
 11
12.85972440944881
 21
0.0007086614173204
  0
LINE
  8
0
  6
CONTINUOUS
 10
17.90848551368886
 20
12.5550330753125
 11
12.11458787589359
 21
1.218340161926683
  0
LINE
  8
0
  6
CONTINUOUS
 10
18.65362204724409
 20
10.33541260799666
 11
14.22716167289118
 21
1.674330708661422
  0
LINE
  8
0
  6
CONTINUOUS
 10
18.65362204724409
 20
1.674330708661422
 11
14.22716167289118
 21
1.674330708661422
  0
LINE
  8
0
  6
CONTINUOUS
 10
23.70238315148414
 20
0.4566992081520596
 11
18.65362204724409
 21
10.33541260799665
  0
LINE
  8
0
  6
CONTINUOUS
 10
25.19265621859459
 20
1.218340161926683
 11
19.39875858079932
 21
12.5550330753125
  0
ARC
  8
0
  6
CONTINUOUS
 10
5.044133858267712
 20
5.044133858267712
 40
5.044133858267714
 50
180.0000000000002
 51
270.0
  0
ARC
  8
0
  6
CONTINUOUS
 10
5.044133858267712
 20
5.044133858267712
 40
3.37051181102363
 50
180.0
 51
270.0
  0
ARC
  8
0
  6
CONTINUOUS
 10
6.449763779527558
 20
5.044133858267712
 40
3.370629921263615
 50
269.5203470293719
 51
0.0
  0
ARC
  8
0
  6
CONTINUOUS
 10
6.449763779527558
 20
5.044133858267712
 40
5.044251968503932
 50
269.6079117202438
 51
0.0
  0
LINE
  8
0
  6
CONTINUOUS
 10
-0.0000000000000142
 20
12.17421259842519
 11
0.0
 21
5.044133858267712
  0
LINE
  8
0
  6
CONTINUOUS
 10
11.49401574803148
 20
12.17421259842519
 11
11.49401574803148
 21
5.044133858267712
  0
LINE
  8
0
  6
CONTINUOUS
 10
9.820393700787394
 20
12.17421259842519
 11
9.820393700787394
 21
5.044133858267712
  0
LINE
  8
0
  6
CONTINUOUS
 10
5.044133858267712
 20
1.673622047244087
 11
6.421546801167551
 21
1.673622047244087
  0
LINE
  8
0
  6
CONTINUOUS
 10
5.044133858267712
 20
-0.0000000000000009
 11
6.41524506528368
 21
-0.0000000000000009
  0
LINE
  8
0
  6
CONTINUOUS
 10
1.673622047244081
 20
12.17421259842519
 11
1.673622047244082
 21
5.044133858267712
  0
ENDSEC
  0
EOF
